<?xml version="1.0" standalone="no"?>
<!DOCTYPE svg PUBLIC "-//W3C//DTD SVG 20010904//EN"
 "http://www.w3.org/TR/2001/REC-SVG-20010904/DTD/svg10.dtd">
<svg version="1.0" xmlns="http://www.w3.org/2000/svg"
 width="512.000000pt" height="512.000000pt" viewBox="0 0 512.000000 512.000000"
 preserveAspectRatio="xMidYMid meet">

<g transform="translate(0.000000,512.000000) scale(0.100000,-0.100000)"
fill="#000000" stroke="none">
<path d="M2384 5110 c-521 -37 -1012 -230 -1424 -557 -109 -86 -307 -284 -393
-393 -244 -306 -418 -668 -501 -1040 -80 -361 -80 -759 0 -1120 142 -634 533
-1204 1074 -1564 262 -175 559 -303 860 -370 361 -80 759 -80 1120 0 634 142
1204 533 1564 1074 175 262 303 559 370 860 80 361 80 759 0 1120 -142 634
-533 1204 -1074 1564 -470 313 -1042 466 -1596 426z m937 -894 c217 -46 357
-151 416 -313 30 -82 41 -224 24 -305 -35 -166 -166 -308 -354 -387 -245 -101
-605 -90 -969 29 -67 22 -122 39 -124 38 -1 -2 -25 -46 -52 -98 -102 -191
-169 -380 -219 -620 -25 -116 -27 -143 -27 -375 0 -239 1 -254 26 -347 67
-246 208 -395 421 -447 177 -43 441 -11 647 78 191 83 329 184 466 342 97 112
144 146 186 136 39 -10 53 -62 52 -187 -1 -121 -19 -201 -69 -299 -141 -281
-456 -487 -860 -562 -155 -29 -453 -32 -615 -7 -484 78 -811 350 -921 767 -59
226 -50 582 22 919 68 318 252 715 457 988 l31 41 -50 69 c-102 139 -178 326
-165 407 9 56 40 87 85 87 50 0 88 -26 224 -153 65 -61 130 -119 144 -129 26
-17 27 -16 72 21 207 172 483 291 751 325 72 9 327 -3 401 -18z"/>
<path d="M2965 3789 c-79 -12 -146 -34 -226 -76 -74 -38 -203 -139 -194 -153
7 -12 171 -47 275 -60 127 -15 278 -13 340 6 29 9 66 29 82 44 24 24 28 36 28
83 0 65 -27 111 -80 138 -44 22 -146 30 -225 18z"/>
</g>
</svg>
